<svg viewBox="0 0 300 153" fill="none" version="1.1" xmlns="http://www.w3.org/2000/svg">
  <path d="M55.5561798,83.6335178 L82.7174952,83.7716499 C85.1938121,83.7842435 87.1946103,85.7952428 87.1946103,88.2715917 L87.1946103,130.960674 L172.410017,130.960674 L172.519072,64.6597133 C172.523144,62.1838722 174.526462,60.1763765 177.00229,60.1671464 L245.567416,59.9115285 L245.567416,5 C245.567416,2.51471863 243.552697,0.5 241.067416,0.5 L60.0561798,0.5 C57.5708984,0.5 55.5561798,2.51471863 55.5561798,5 C55.5561798,13.3216841 55.5561798,13.3216841 55.5561798,21.6433682 C55.5561798,29.9650522 55.5561798,29.9650522 55.5561798,38.2867363 C55.5561798,49.2374314 55.5561798,49.2374314 55.5561798,60.5964194 C55.5561798,71.9971276 55.5561798,72.1572724 55.5561798,83.6335178 Z" stroke="#70808F"/>
  <path d="M94.3820225,138.202247 L171.910112,138.202247" stroke="#70808F" stroke-linecap="square"/>
  <rect stroke="#70808F" x="165.668539" y="146.567416" width="133.831461" height="5.74157303" rx="2"/>
  <path d="M176.910112,60.0505618 C174.424831,60.0505618 172.410112,62.0652804 172.410112,64.5505618 C172.410112,69.3544475 172.410112,69.3544475 172.410112,74.1583331 C172.410112,78.9622188 172.410112,78.9622188 172.410112,83.7661044 C172.410112,97.4891474 172.410112,97.4891474 172.410112,111.21219 L172.410112,137.696629 C172.410112,140.181911 174.424831,142.196629 176.910112,142.196629 L288.258427,142.196629 C290.743708,142.196629 292.758427,140.181911 292.758427,137.696629 L292.758427,64.5505618 C292.758427,62.0652804 290.743708,60.0505618 288.258427,60.0505618 L176.910112,60.0505618 Z" stroke="#70808F"/>
  <path d="M42.0786517,83.6460674 C39.5933703,83.6460674 37.5786517,85.660786 37.5786517,88.1460674 C37.5786517,95.7904164 37.5786517,95.7904164 37.5786517,103.434765 C37.5786517,114.93245 37.5786517,114.93245 37.5786517,126.430135 L37.5786517,147.808989 C37.5786517,150.29427 39.5933703,152.308989 42.0786517,152.308989 L82.6404494,152.308989 C85.1257308,152.308989 87.1404494,150.29427 87.1404494,147.808989 L87.1404494,88.1460674 C87.1404494,85.660786 85.1257308,83.6460674 82.6404494,83.6460674 L42.0786517,83.6460674 Z" stroke="#70808F"/>
  <path d="M5,100.5 C2.51471863,100.5 0.5,102.514719 0.5,105 C0.5,110.190071 0.5,110.190071 0.5,115.380142 C0.5,119.738135 0.5,119.738135 0.5,124.096129 C0.5,128.454122 0.5,128.454122 0.5,132.812115 L0.5,147.808989 C0.5,150.29427 2.51471863,152.308989 5,152.308989 L21.9662921,152.308989 C24.4515735,152.308989 26.4662921,150.29427 26.4662921,147.808989 L26.4662921,105 C26.4662921,102.514719 24.4515735,100.5 21.9662921,100.5 L5,100.5 Z" stroke="#70808F"/>
</svg>
