<svg width="168.34846mm" height="168.06493mm" viewBox="0 0 168.34846 168.06493" version="1.1" id="svg5" xmlns="http://www.w3.org/2000/svg"><defs id="defs2"/><g id="layer1" transform="translate(-20.112694,-46.370764)" style="display:inline"><circle style="fill:#fffcfc;fill-opacity:1;stroke:#001014;stroke-width:7.323;stroke-dasharray:none;stroke-opacity:1" id="path160" cx="104.14516" cy="130.40323" r="80.370964"/><path style="fill:none;fill-opacity:1;stroke:#001014;stroke-width:4.523;stroke-dasharray:none;stroke-opacity:1" d="m 70.281829,57.458128 c -9.941673,12.895285 -16.364598,28.476373 -18.398268,44.631542 -2.033669,16.15517 0.327255,32.842 6.762795,47.7989 6.435541,14.95691 16.9288,28.14462 30.057613,37.7758 13.128811,9.63117 28.858711,15.68052 45.057801,17.32816 0.41767,0.0425 0.84277,0.0818 1.25455,0 0.48792,-0.0969 0.93941,-0.36782 1.25454,-0.75272" id="path3276"/><path style="fill:#001014;fill-opacity:1;stroke:#001014;stroke-width:11.802;stroke-linecap:round;stroke-linejoin:round;stroke-dasharray:none;stroke-opacity:1" d="M 126.85284,200.23632 C 109.91866,196.71289 94.944278,188.88412 82.790269,177.19995 67.870661,162.85709 59.014057,145.56822 55.823254,124.55797 c -0.840457,-5.5341 -0.838637,-18.38669 0.0034,-24.05991 2.032383,-13.693054 7.072217,-26.872727 14.467101,-37.832928 1.314323,-1.947997 1.446689,-2.035669 5.71037,-3.782253 6.891774,-2.823162 12.555268,-4.350303 20.155179,-5.434769 4.491206,-0.640874 14.984326,-0.549405 20.010726,0.174432 18.65562,2.686545 35.91654,12.230034 47.82517,26.442344 9.02664,10.77281 14.8491,23.489394 17.22095,37.611614 0.8879,5.28663 0.8879,18.1952 0,23.48182 -3.87028,23.04396 -16.88047,42.18617 -36.7712,54.10233 -4.49644,2.69373 -11.42976,5.8393 -12.80179,5.80802 -0.48791,-0.0111 -2.64355,-0.38568 -4.79033,-0.83235 z m 34.86713,-80.93959 c 2.36586,-0.70259 5.40038,-3.43251 6.39289,-5.75121 1.62378,-3.79344 1.36947,-6.16027 -1.41231,-13.14427 -5.49198,-13.788334 -16.38897,-25.333361 -30.29395,-32.095532 -3.53254,-1.717918 -4.09029,-1.882407 -6.7696,-1.996434 -2.51105,-0.106866 -3.18695,-0.0021 -4.82726,0.748961 -2.14713,0.982985 -4.22259,2.941296 -5.355,5.052724 -1.12395,2.095669 -1.10228,7.522247 0.0386,9.659937 1.29708,2.4304 3.06795,3.88765 7.21746,5.93926 4.77376,2.36025 7.87084,4.52738 11.15923,7.80851 4.45709,4.447247 7.56391,9.458044 9.75545,15.733984 1.6022,4.58822 3.95618,7.08129 7.79189,8.25229 1.49332,0.45589 4.38837,0.36025 6.30262,-0.20822 z" id="path6375"/></g></svg>
