<svg xmlns="http://www.w3.org/2000/svg" width="400" height="400" viewBox="0 0 400 398">
  <path fill="#6a6e96" d="M358.636,16.88a50.35,50.35,0,0,1,12.2-5.516c6.1-1.82,10.468-1.486,11.7-.443,2.21,1.872,2.682,7.054.36,15.8a58.617,58.617,0,0,1-3.11,8.657c-2.868,5.664-9.036,19.867-14.947,29.972-6.222,10.636-12.667,19.459-18.847,30.12a108.622,108.622,0,0,1-14.579,19.883,90.654,90.654,0,0,1-8.052,7.393c-1.883.848-3.621,1.314-4.332,0.595-1.731-1.749,3.746-9.371,10.485-20.126,3.768-6.013,9.226-17.235,13.658-27.626,3.572-8.374,6.427-16.693,3.162-19.647-2.805-2.538-9.247-.282-14.163,2.144-4.1,2.026-7.493,5.273-9.569,6.776-3.608,2.613-7.184,5.27-10.777,8.008-12.7,9.674-26.154,21.094-39.637,33.2-16.578,14.891-33.969,31.055-47.257,44.29-10.182,10.141-20.8,20.935-29.638,30.3-9.99,10.58-19.808,18.909-29.9,29.389-2.717,2.821-23.97,21.47-44.328,30.625-13.344,6-23.723,7.24-32.489,3.527a25.337,25.337,0,0,1-4.692-2.58c-12-8.447-15.7-28.682-11.715-60.666,2.381-19.106,7.992-34.6,15.287-47.335,9.022-15.753,23.122-31.605,44.626-44.99A129.825,129.825,0,0,1,176.2,70.881c14.114-2.729,30.959-3.27,51.491.808a146.114,146.114,0,0,1,37.244,12.834c7.127-6.117,14.181-12.071,21.372-18.039,15.425-12.8,30.7-24.836,44.445-33.616Q344.353,24.183,358.636,16.88Z"/>
  <path fill="#6a6e96" d="M41.372,381.132a50.371,50.371,0,0,1-12.2,5.515c-6.1,1.82-10.468,1.487-11.7.443-2.21-1.872-2.682-7.053-.36-15.8a58.657,58.657,0,0,1,3.11-8.657c2.867-5.664,9.036-19.867,14.947-29.972,6.222-10.636,12.666-19.459,18.847-30.12A108.578,108.578,0,0,1,68.6,282.66a90.4,90.4,0,0,1,8.052-7.394c1.884-.847,3.621-1.313,4.333-0.6,1.73,1.749-3.747,9.371-10.486,20.126-3.768,6.013-9.226,17.235-13.658,27.626-3.572,8.374-6.427,16.693-3.162,19.647,2.8,2.538,9.247.283,14.163-2.144,4.1-2.026,7.493-5.273,9.569-6.777,3.608-2.613,7.184-5.27,10.778-8.007,12.7-9.675,26.154-21.094,39.636-33.2,16.579-14.891,33.97-31.055,47.258-44.29,10.181-10.141,20.8-20.935,29.638-30.3,9.99-10.581,19.807-18.909,29.9-29.39,2.717-2.821,23.971-21.47,44.329-30.624,13.343-6,23.722-7.24,32.489-3.527a25.276,25.276,0,0,1,4.692,2.579c12,8.447,15.7,28.682,11.716,60.666-2.381,19.106-7.992,34.6-15.287,47.335-9.023,15.754-23.122,31.605-44.626,44.99a129.846,129.846,0,0,1-44.127,17.752c-14.114,2.729-30.959,3.27-51.492-.808a146.107,146.107,0,0,1-37.243-12.834c-7.128,6.116-14.182,12.07-21.372,18.039-15.425,12.8-30.7,24.835-44.446,33.615Q55.656,373.828,41.372,381.132Z"/>
</svg>
