<svg width="25" height="25" viewBox="0 0 25 180" version="1.1" id="svg5" xmlns="http://www.w3.org/2000/svg"><defs id="defs2"/><g id="layer1" transform="translate(-92,-41.370764)"><circle style="fill:none;fill-opacity:1;stroke:#fdf9f7;stroke-width:7.323;stroke-dasharray:none;stroke-opacity:1" id="path160" cx="104.14516" cy="130.40323" r="80.370964"/><path style="fill:none;fill-opacity:1;stroke:#fdf9f7;stroke-width:4.523;stroke-dasharray:none;stroke-opacity:1" d="m 70.281829,57.458128 c -9.941673,12.895285 -16.364598,28.476373 -18.398268,44.631542 -2.033669,16.15517 0.327255,32.842 6.762795,47.7989 6.435541,14.95691 16.9288,28.14462 30.057613,37.7758 13.128811,9.63117 28.858711,15.68052 45.057801,17.32816 0.41767,0.0425 0.84277,0.0818 1.25455,0 0.48792,-0.0969 0.93941,-0.36782 1.25454,-0.75272" id="path3276"/><path style="fill:none;fill-opacity:1;stroke:#fdf9f7;stroke-width:9.627;stroke-linecap:round;stroke-linejoin:round;stroke-dasharray:none;stroke-opacity:1" d="m 127.79547,77.894868 c 9.78868,4.028899 18.24265,11.228946 23.77838,20.251471 2.27464,3.707371 4.06657,7.710531 5.31635,11.876661" id="path4835"/><path style="fill:#fdf9f7;stroke:#fdf9f7;stroke-width:33.8518;stroke-linecap:round;stroke-linejoin:round;stroke-opacity:1;fill-opacity:1" d="M 302.8043,606.7006 C 242.11973,603.64505 183.74955,581.26267 135.46508,542.53342 122.35454,532.01737 103.18865,512.85148 92.672604,499.74094 83.514577,488.32345 71.185819,470.08337 64.498205,458.05762 42.90872,419.23515 30.55075,375.51165 28.515506,330.74792 24.132588,234.34874 67.689366,142.87611 145.61624,84.827273 c 4.12223,-3.070712 7.61099,-5.467088 7.7528,-5.325279 0.14181,0.141809 -2.76379,6.295466 -6.45689,13.674794 -27.90926,55.766542 -40.51851,114.278262 -37.90639,175.900032 3.08277,72.72466 27.45617,140.87524 71.23103,199.16943 46.81339,62.34055 112.47412,107.16028 188.53782,128.6951 5.81351,1.6459 10.69518,3.1177 10.84816,3.27068 0.42267,0.42267 -15.70361,3.29945 -25.97163,4.63309 -7.67918,0.99741 -36.28955,2.87083 -38.70431,2.53439 -0.4174,-0.0581 -5.88154,-0.36367 -12.14253,-0.67891 z" id="path7478" transform="matrix(0.26458333,0,0,0.26458333,20.112694,46.370764)"/></g></svg>
