<svg width="168.06493mm" height="168.06493mm" viewBox="0 0 168.06493 168.06493" version="1.1" id="svg5" xmlns="http://www.w3.org/2000/svg"><defs id="defs2"/><g id="layer1" transform="translate(-20.112694,-46.370764)"><circle style="fill:#fdf9f7;fill-opacity:1;stroke:#ff5e4d;stroke-width:7.323;stroke-dasharray:none;stroke-opacity:1" id="path160" cx="104.14516" cy="130.40323" r="80.370964" /><path style="fill:none;fill-opacity:1;stroke:#ff5e4d;stroke-width:4.523;stroke-dasharray:none;stroke-opacity:1" d="m 70.281829,57.458128 c -9.941673,12.895285 -16.364598,28.476373 -18.398268,44.631542 -2.033669,16.15517 0.327255,32.842 6.762795,47.7989 6.435541,14.95691 16.9288,28.14462 30.057613,37.7758 13.128811,9.63117 28.858711,15.68052 45.057801,17.32816 0.41767,0.0425 0.84277,0.0818 1.25455,0 0.48792,-0.0969 0.93941,-0.36782 1.25454,-0.75272" id="path3276" /><path style="fill:none;fill-opacity:1;stroke:#ff5e4d;stroke-width:9.627;stroke-linecap:round;stroke-linejoin:round;stroke-dasharray:none;stroke-opacity:1" d="m 127.79547,77.894868 c 9.78868,4.028899 18.24265,11.228946 23.77838,20.251471 2.27464,3.707371 4.06657,7.710531 5.31635,11.876661" id="path4835" /><path style="fill:#ff5e4d;stroke:#ff5e4d;stroke-width:35.52756146;stroke-linecap:round;stroke-linejoin:round;stroke-opacity:1;fill-opacity:1;stroke-dasharray:none" d="M 308.49611,607.01202 C 275.39498,605.79244 241.93164,598.90266 212.51053,587.2495 191.36321,578.87343 176.54608,571.14143 157.47342,558.52957 141.12061,547.71622 127.30727,536.40308 113.05511,522.15091 55.282718,464.37852 24.811954,385.91511 28.515506,304.4581 32.477315,217.32096 75.120536,137.34053 145.61624,84.827273 c 4.12223,-3.070712 7.61099,-5.467088 7.7528,-5.325279 0.14181,0.141809 -2.76379,6.295466 -6.45689,13.674794 -23.66033,47.276592 -35.97727,94.895612 -37.92882,146.638152 -3.79025,100.49297 33.38186,195.44859 104.27459,266.36796 44.85416,44.871 100.32449,76.42623 163.42679,92.96807 1.81609,0.47607 3.1492,1.01835 2.96248,1.20507 -0.73542,0.73542 -27.2963,4.78947 -36.24131,5.53159 -11.05145,0.91688 -26.78645,1.42368 -34.90977,1.12439 z" id="path9013" transform="matrix(0.26458333,0,0,0.26458333,20.112694,46.370764)"/></g></svg>
